<?xml version="1.0" encoding="UTF-8"?>
<svg width="200" height="200" viewBox="0 0 200 200" xmlns="http://www.w3.org/2000/svg">
  <!-- 渐变定义 -->
  <defs>
    <linearGradient id="sharkGradient" x1="0%" y1="0%" x2="100%" y2="100%">
      <stop offset="0%" style="stop-color:#1a365d"/>
      <stop offset="100%" style="stop-color:#2c5282"/>
    </linearGradient>
    <linearGradient id="finGradient" x1="0%" y1="0%" x2="100%" y2="100%">
      <stop offset="0%" style="stop-color:#2b6cb0"/>
      <stop offset="100%" style="stop-color:#4299e1"/>
    </linearGradient>
  </defs>
  
  <!-- 鲨鱼身体（向上游动的姿态） -->
  <path d="M100 160 C60 160, 40 120, 40 80 C40 40, 100 20, 160 80 C160 120, 140 160, 100 160 Z" 
        fill="url(#sharkGradient)"/>
  
  <!-- 鲨鱼尾鳍 -->
  <path d="M90 140 C70 160, 50 150, 30 170 L50 140 L30 110 C50 130, 70 120, 90 140" 
        fill="url(#finGradient)"/>
  
  <!-- 鲨鱼背鳍 -->
  <path d="M120 60 L150 30 L130 70 Z" 
        fill="url(#finGradient)"/>
  
  <!-- 鲨鱼眼睛 -->
  <circle cx="80" cy="70" r="5" fill="#fff"/>
  <circle cx="80" cy="70" r="2" fill="#000"/>
  
  <!-- 鲨鱼鳃 -->
  <path d="M70 90 L90 90" stroke="#4299e1" stroke-width="2"/>
  <path d="M68 95 L88 95" stroke="#4299e1" stroke-width="2"/>
  <path d="M66 100 L86 100" stroke="#4299e1" stroke-width="2"/>
</svg>